<?xml version="1.0" encoding="utf-8"?>
<!-- Generator: Adobe Illustrator 16.0.4, SVG Export Plug-In . SVG Version: 6.00 Build 0)  -->
<!DOCTYPE svg PUBLIC "-//W3C//DTD SVG 1.1//EN" "http://www.w3.org/Graphics/SVG/1.1/DTD/svg11.dtd">
<svg version="1.1" id="Capa_1" xmlns="http://www.w3.org/2000/svg" xmlns:xlink="http://www.w3.org/1999/xlink" x="0px" y="0px"
	 width="512px" height="512px" viewBox="0 0 512 512" enable-background="new 0 0 512 512" xml:space="preserve">
<path fill="#FFFFFF" d="M256,0C198.266,0,64,24.938,64,256c0,231.062,134.266,256,192,256c57.733,0,191.998-24.938,191.998-256
	C447.998,24.938,313.735,0,256,0z M395.03,384H336c-8.845,0-16,7.156-16,16.001c0,8.844,7.155,16,16,16h42.602
	c-27.1,41.822-68.377,64-122.601,64c-77.359,0-128.66-44.727-149.491-128H144c8.845,0,16.001-7.156,16.001-16.001
	c0-8.844-7.156-16-16.001-16h-43.532c-2.857-19.703-4.467-40.926-4.467-64c0-68.531,12.937-122.25,37.397-160h42.603
	c8.844,0,16-7.156,16-16s-7.156-16-16-16h-14.923c24.955-21.042,56.746-32,94.924-32c54.225,0,95.502,22.178,122.602,64h-42.602
	c-8.845,0-16,7.156-16,16s7.155,16,16,16h59.028c13.732,34.191,20.972,76.949,20.972,128S408.762,349.809,395.03,384z"/>
<path id="path-1_63_" fill="#FFFFFF" d="M344.341,263.414h-32c-8.845,0-16,7.156-16,16s7.155,16,16,16h32c8.844,0,16-7.156,16-16
	S353.185,263.414,344.341,263.414L344.341,263.414z"/>
<path id="path-1_51_" fill="#FFFFFF" d="M245.561,428.048h-31.999c-8.844,0-16.001,7.156-16.001,16
	c0,8.845,7.157,16.001,16.001,16.001h31.999c8.845,0,16.001-7.156,16.001-16.001C261.562,435.204,254.405,428.048,245.561,428.048z"
	/>
<path fill="#FFFFFF" d="M224,176c0-8.844-7.156-16-16-16h-32c-8.845,0-16,7.156-16,16s7.155,16,16,16h32
	C216.844,192,224,184.843,224,176L224,176z"/>
</svg>
